<mxfile host="65bd71144e">
    <diagram id="DdC32A-zgRy7LpysZ4J3" name="第1頁">
        <mxGraphModel dx="1078" dy="585" grid="1" gridSize="10" guides="1" tooltips="1" connect="1" arrows="1" fold="1" page="1" pageScale="1" pageWidth="827" pageHeight="1169" math="0" shadow="0">
            <root>
                <mxCell id="0"/>
                <mxCell id="1" parent="0"/>
                <mxCell id="21" style="edgeStyle=none;html=1;exitX=0.25;exitY=0;exitDx=0;exitDy=0;entryX=1;entryY=0;entryDx=0;entryDy=0;strokeColor=#000000;" edge="1" parent="1" source="2" target="5">
                    <mxGeometry relative="1" as="geometry">
                        <Array as="points">
                            <mxPoint x="384" y="190"/>
                        </Array>
                    </mxGeometry>
                </mxCell>
                <mxCell id="22" style="edgeStyle=none;html=1;exitX=0.75;exitY=0;exitDx=0;exitDy=0;entryX=0;entryY=1;entryDx=0;entryDy=0;strokeColor=#000000;" edge="1" parent="1" source="2" target="8">
                    <mxGeometry relative="1" as="geometry">
                        <Array as="points">
                            <mxPoint x="444" y="190"/>
                        </Array>
                    </mxGeometry>
                </mxCell>
                <mxCell id="2" value="申請人" style="rounded=0;whiteSpace=wrap;html=1;strokeColor=#000000;" vertex="1" parent="1">
                    <mxGeometry x="354" y="350" width="120" height="60" as="geometry"/>
                </mxCell>
                <mxCell id="33" style="edgeStyle=none;html=1;strokeColor=#000000;" edge="1" parent="1" source="3" target="18">
                    <mxGeometry relative="1" as="geometry"/>
                </mxCell>
                <mxCell id="34" style="edgeStyle=none;html=1;exitX=0.25;exitY=1;exitDx=0;exitDy=0;entryX=1;entryY=0.75;entryDx=0;entryDy=0;strokeColor=#000000;" edge="1" parent="1" source="3" target="6">
                    <mxGeometry relative="1" as="geometry"/>
                </mxCell>
                <mxCell id="35" style="edgeStyle=none;html=1;entryX=0;entryY=0.75;entryDx=0;entryDy=0;strokeColor=#000000;" edge="1" parent="1" source="3" target="19">
                    <mxGeometry relative="1" as="geometry"/>
                </mxCell>
                <mxCell id="3" value="&lt;span style=&quot;font-family: Consolas, &amp;quot;Courier New&amp;quot;, monospace; font-size: 14px;&quot;&gt;&lt;font color=&quot;#000000&quot;&gt;申請人填寫資料&lt;/font&gt;&lt;br&gt;&lt;/span&gt;" style="rounded=0;whiteSpace=wrap;html=1;strokeColor=#000000;" vertex="1" parent="1">
                    <mxGeometry x="354" y="410" width="120" height="60" as="geometry"/>
                </mxCell>
                <mxCell id="4" value="政府審核人員" style="rounded=0;whiteSpace=wrap;html=1;strokeColor=#000000;" vertex="1" parent="1">
                    <mxGeometry x="130" y="130" width="120" height="60" as="geometry"/>
                </mxCell>
                <mxCell id="5" value="審核申請者資料&lt;br&gt;核對金融帳戶資訊&lt;span style=&quot;color: rgb(204, 204, 204); font-family: Consolas, &amp;quot;Courier New&amp;quot;, monospace; font-size: 14px; background-color: rgb(31, 31, 31);&quot;&gt;&lt;br&gt;&lt;/span&gt;" style="rounded=0;whiteSpace=wrap;html=1;strokeColor=#000000;" vertex="1" parent="1">
                    <mxGeometry x="130" y="190" width="120" height="60" as="geometry"/>
                </mxCell>
                <mxCell id="6" value="戶政系統" style="rounded=0;whiteSpace=wrap;html=1;strokeColor=#000000;" vertex="1" parent="1">
                    <mxGeometry x="130" y="530" width="120" height="60" as="geometry"/>
                </mxCell>
                <mxCell id="32" style="edgeStyle=none;html=1;strokeColor=#000000;" edge="1" parent="1" source="7" target="20">
                    <mxGeometry relative="1" as="geometry"/>
                </mxCell>
                <mxCell id="7" value="管理普發名單&lt;br&gt;提供身份證字號或居留證號的真實性核對&lt;span style=&quot;color: rgb(204, 204, 204); font-family: Consolas, &amp;quot;Courier New&amp;quot;, monospace; font-size: 14px; background-color: rgb(31, 31, 31);&quot;&gt;&lt;br&gt;&lt;/span&gt;" style="rounded=0;whiteSpace=wrap;html=1;strokeColor=#000000;" vertex="1" parent="1">
                    <mxGeometry x="130" y="590" width="120" height="60" as="geometry"/>
                </mxCell>
                <mxCell id="31" style="edgeStyle=none;html=1;entryX=1;entryY=0.25;entryDx=0;entryDy=0;exitX=1;exitY=0.75;exitDx=0;exitDy=0;strokeColor=#000000;" edge="1" parent="1" source="8" target="16">
                    <mxGeometry relative="1" as="geometry">
                        <Array as="points">
                            <mxPoint x="780" y="175"/>
                            <mxPoint x="780" y="425"/>
                        </Array>
                    </mxGeometry>
                </mxCell>
                <mxCell id="8" value="第三方金融機構" style="rounded=0;whiteSpace=wrap;html=1;strokeColor=#000000;" vertex="1" parent="1">
                    <mxGeometry x="590" y="130" width="120" height="60" as="geometry"/>
                </mxCell>
                <mxCell id="9" value="核對金融帳戶資訊&lt;br&gt;提供身份證字號或居留證號的真實性核對&lt;span style=&quot;color: rgb(204, 204, 204); font-family: Consolas, &amp;quot;Courier New&amp;quot;, monospace; font-size: 14px; background-color: rgb(31, 31, 31);&quot;&gt;&lt;br&gt;&lt;/span&gt;" style="rounded=0;whiteSpace=wrap;html=1;strokeColor=#000000;" vertex="1" parent="1">
                    <mxGeometry x="590" y="190" width="120" height="60" as="geometry"/>
                </mxCell>
                <mxCell id="15" value="金融負責單位" style="rounded=0;whiteSpace=wrap;html=1;strokeColor=#000000;" vertex="1" parent="1">
                    <mxGeometry x="590" y="350" width="120" height="60" as="geometry"/>
                </mxCell>
                <mxCell id="29" style="edgeStyle=none;html=1;entryX=0.675;entryY=-0.033;entryDx=0;entryDy=0;exitX=1;exitY=0.5;exitDx=0;exitDy=0;entryPerimeter=0;strokeColor=#000000;" edge="1" parent="1" source="16" target="4">
                    <mxGeometry relative="1" as="geometry">
                        <Array as="points">
                            <mxPoint x="740" y="440"/>
                            <mxPoint x="740" y="100"/>
                            <mxPoint x="210" y="100"/>
                        </Array>
                    </mxGeometry>
                </mxCell>
                <mxCell id="16" value="管理普發名單&lt;span style=&quot;color: rgb(204, 204, 204); font-family: Consolas, &amp;quot;Courier New&amp;quot;, monospace; font-size: 14px; background-color: rgb(31, 31, 31);&quot;&gt;&lt;br&gt;&lt;/span&gt;" style="rounded=0;whiteSpace=wrap;html=1;strokeColor=#000000;" vertex="1" parent="1">
                    <mxGeometry x="590" y="410" width="120" height="60" as="geometry"/>
                </mxCell>
                <mxCell id="17" value="系統設計師" style="rounded=0;whiteSpace=wrap;html=1;strokeColor=#000000;" vertex="1" parent="1">
                    <mxGeometry x="130" y="350" width="120" height="60" as="geometry"/>
                </mxCell>
                <mxCell id="18" value="設計前後台網站&lt;span style=&quot;color: rgb(204, 204, 204); font-family: Consolas, &amp;quot;Courier New&amp;quot;, monospace; font-size: 14px; background-color: rgb(31, 31, 31);&quot;&gt;&lt;br&gt;&lt;/span&gt;" style="rounded=0;whiteSpace=wrap;html=1;strokeColor=#000000;" vertex="1" parent="1">
                    <mxGeometry x="130" y="410" width="120" height="60" as="geometry"/>
                </mxCell>
                <mxCell id="19" value="健保局" style="rounded=0;whiteSpace=wrap;html=1;strokeColor=#000000;" vertex="1" parent="1">
                    <mxGeometry x="570" y="530" width="120" height="60" as="geometry"/>
                </mxCell>
                <mxCell id="36" style="edgeStyle=none;html=1;entryX=0;entryY=1;entryDx=0;entryDy=0;exitX=0.5;exitY=1;exitDx=0;exitDy=0;strokeColor=#000000;" edge="1" parent="1" source="20" target="4">
                    <mxGeometry relative="1" as="geometry">
                        <Array as="points">
                            <mxPoint x="630" y="690"/>
                            <mxPoint x="90" y="690"/>
                            <mxPoint x="90" y="190"/>
                        </Array>
                    </mxGeometry>
                </mxCell>
                <mxCell id="20" value="比對健保卡資料&lt;br&gt;提供身份證字號或居留證號的真實性核對&lt;span style=&quot;color: rgb(204, 204, 204); font-family: Consolas, &amp;quot;Courier New&amp;quot;, monospace; font-size: 14px; background-color: rgb(31, 31, 31);&quot;&gt;&lt;br&gt;&lt;/span&gt;" style="rounded=0;whiteSpace=wrap;html=1;strokeColor=#000000;" vertex="1" parent="1">
                    <mxGeometry x="570" y="590" width="120" height="60" as="geometry"/>
                </mxCell>
            </root>
        </mxGraphModel>
    </diagram>
</mxfile>